<svg width="56" height="96" viewBox="0 0 56 96" fill="none" xmlns="http://www.w3.org/2000/svg">
<path d="M3.98438 96C3.09375 96 2.25 95.7188 1.45312 95.1094C0.84375 94.6875 0.46875 94.2656 0.328125 93.8438C0.09375 93.4688 0 91.4062 0 87.6562C0 86.5781 0.09375 82.0312 0.234375 74.0625C0.28125 70.9219 0.328125 67.1719 0.421875 62.8594C0.515625 58.5469 0.609375 53.5781 0.703125 48L1.21875 23.3438C1.40625 14.4844 1.59375 8.67188 1.78125 5.85938C1.96875 3.04688 2.34375 1.35938 2.8125 0.890625C2.90625 0.796875 3.32812 0.5625 4.07812 0.28125C4.54688 0.09375 5.01562 0 5.48438 0C6.42188 0 7.3125 0.421875 8.15625 1.21875C8.53125 1.59375 8.76562 1.96875 8.90625 2.39062C9.04688 2.8125 9.09375 3.46875 9.09375 4.45312C9.09375 6 9.14062 6.79688 9.28125 6.79688C9.375 6.79688 10.2656 6.14062 11.8594 4.875C13.5 3.60938 14.9062 2.71875 16.1719 2.10938C17.6719 1.40625 19.2188 1.07812 20.8125 1.07812C23.1094 1.07812 25.0312 2.01562 26.5781 3.84375C28.125 5.53125 29.0156 7.40625 29.25 9.51562C29.4844 11.625 29.625 13.3594 29.625 14.6719C29.625 17.3438 29.3906 20.5781 28.9219 24.375C28.4062 29.1562 28.125 33.2344 28.125 36.5625C28.125 40.4062 28.4062 42.3281 29.0156 42.3281C29.2031 42.3281 29.9062 41.7188 31.0781 40.5469C33.4688 37.875 36 32.9531 38.6719 25.7344C39.75 22.7344 40.5469 20.9531 40.9688 20.3906C41.25 20.0156 41.5781 19.7344 41.9531 19.5C42.6562 19.0312 43.3594 18.7969 44.0625 18.7969C44.8594 18.7969 45.6562 19.125 46.4062 19.8281C47.1094 20.3906 47.4375 21.1875 47.4375 22.2188C47.3906 23.2031 47.0156 24.8438 46.2188 27.1406C41.0625 42.5156 35.0625 50.2031 28.2188 50.2031C24.5625 50.2031 22.125 47.7188 20.9531 42.7969C20.7188 41.3906 20.5781 38.8125 20.5781 35.0625C20.625 31.5938 20.9062 27.9375 21.3281 24.0938C21.75 20.4844 21.9844 17.3438 21.9844 14.7188C21.9844 12.0938 21.7969 10.3594 21.375 9.5625C21 8.95312 20.625 8.67188 20.2031 8.67188C19.7812 8.67188 18.6562 9.375 16.8281 10.7344C14.625 12.3281 12 14.5312 9 17.2969C8.01562 65.7188 7.45312 90.75 7.3125 92.3906C7.17188 93.4688 6.79688 94.3125 6.1875 94.875C5.57812 95.4844 5.10938 95.8125 4.78125 95.8594C4.45312 95.9531 4.17188 96 3.98438 96Z" fill="#76151B"/>
<path d="M51.3594 11.9062C50.4688 11.9062 49.5312 11.5312 48.6406 10.7812C47.5625 9.70312 47 8.57812 47 7.45312C47 6.42188 47.4688 5.39062 48.4062 4.3125C49.3906 3.42188 50.4219 3 51.5938 3C53.1406 3 54.2656 3.65625 55.0625 5.01562C55.4375 5.85938 55.625 6.65625 55.625 7.40625C55.625 8.0625 55.5312 8.67188 55.25 9.23438C54.4062 11.0156 53.0938 11.9062 51.3594 11.9062Z" fill="#D93199"/>
</svg>
