<svg width="210" height="124" viewBox="0 0 210 124" fill="none" xmlns="http://www.w3.org/2000/svg">
<path d="M170.953 84.375C170.109 84.375 169.266 84.2344 168.422 83.9531C167.438 83.625 166.359 82.7812 165.094 81.4688C163.828 80.2031 162.844 78.7969 162.047 77.25C161.25 75.75 160.453 73.5938 159.75 70.7812C159 68.0156 158.438 65.1562 158.062 62.2969C157.734 59.1094 157.547 54.4688 157.547 48.2812C157.547 40.5938 157.781 34.4062 158.25 29.6719C158.766 24.4688 159.469 20.1562 160.266 16.7812C161.062 13.4531 162.188 10.4531 163.547 7.78125C164.578 5.76562 165.516 4.21875 166.359 3.23438C167.203 2.25 168.234 1.45312 169.406 0.84375C170.625 0.28125 171.844 0 173.062 0C178.828 0 181.734 4.59375 181.734 13.875C181.734 19.2656 181.172 24.0469 180.141 28.2656C179.297 31.5 177.938 35.0625 176.062 38.9062C174.516 42.0469 173.766 43.6875 173.766 43.7812C173.766 43.8281 174.234 43.9688 175.219 44.1094C177.891 44.5781 180.422 46.3594 182.906 49.4531C184.078 50.9062 184.922 52.2656 185.484 53.5312C186.047 54.8438 186.422 56.3438 186.609 58.0312C186.797 59.25 186.938 59.8594 187.078 59.8594C187.219 59.9062 187.312 59.9062 187.359 59.9062C187.547 59.9062 187.781 59.8594 188.062 59.8125C189.891 59.4375 191.578 58.125 193.125 55.875C194.625 53.7656 196.031 52.7344 197.297 52.7344C197.906 52.7344 198.516 52.9688 199.172 53.3906C200.297 54.2344 200.859 55.2656 200.859 56.4844C200.859 57.7031 200.25 59.1562 199.031 60.7969C196.641 64.3125 193.125 66.5625 188.484 67.5938L185.578 68.25L184.359 71.1094C183.516 72.9844 182.438 74.8594 181.172 76.7812C177.75 81.8438 174.328 84.375 170.953 84.375ZM170.953 76.5938C171.328 76.5938 171.891 76.1719 172.688 75.3281C173.953 73.875 175.125 72.3281 176.109 70.6406C176.719 69.5625 177.141 68.7188 177.281 68.1094C177.281 67.7812 176.297 67.2656 174.328 66.5625C172.969 66.1406 171.75 65.5781 170.672 64.9688C169.594 64.3125 167.906 63.1406 165.656 61.3594C166.031 64.6406 166.594 67.5 167.344 69.8906C168.234 72.8438 169.266 74.9062 170.391 76.1719C170.625 76.4531 170.812 76.5938 170.953 76.5938ZM178.734 59.9531C178.969 59.9062 179.109 59.6719 179.109 59.25C179.109 59.0625 179.062 58.7344 178.969 58.4062C178.828 57.4219 178.547 56.5312 178.125 55.7344C177.703 54.9844 177 54.1406 176.109 53.2031C175.125 52.125 174.141 51.5625 173.203 51.5625C172.641 51.5625 172.078 51.7969 171.562 52.2188C171 52.6406 170.719 53.1562 170.719 53.7656C170.719 54.3281 170.953 54.8906 171.328 55.5469C172.219 56.9062 173.719 58.0781 175.875 59.0625C177.328 59.6719 178.219 59.9531 178.641 59.9531H178.734ZM165.281 42.6562C165.562 42.6562 166.828 40.3594 168.984 35.8125C170.531 32.7656 171.656 30.0469 172.359 27.75C173.531 23.8594 174.141 19.2188 174.141 13.7812C174.141 10.4062 173.859 8.39062 173.25 7.6875C173.203 7.64062 173.156 7.64062 173.109 7.64062C172.875 7.64062 172.547 7.875 172.078 8.39062C168.328 12.5625 166.031 22.875 165.188 39.3281C165.094 40.3125 165.047 41.0625 165.047 41.5781C165.047 42.2812 165.141 42.6562 165.281 42.6562Z" fill="#76151B"/>
<path d="M148.654 84C147.995 84 147.147 83.7396 146.064 83.2623C143.71 82.3509 142.25 80.5283 141.638 77.7943C141.026 75.0604 140.743 71.6755 140.743 67.5528C140.743 65.2528 140.79 62.6057 140.932 59.6981C141.073 56.7906 141.12 54.5774 141.167 53.0585C141.167 51.583 141.167 50.5849 141.167 50.0208C141.167 48.8491 141.073 47.5472 140.884 46.1151C139.849 46.8528 138.907 47.634 138.012 48.5453C137.494 49.0226 135.375 51.1491 131.608 55.0113C131.42 70.8075 131.279 79.4 131.137 80.7453C130.949 81.483 130.478 82.0472 129.772 82.5245C129.066 83.0019 128.265 83.2623 127.418 83.2623C126.382 83.2623 125.487 82.9151 124.734 82.1774C124.027 81.4396 123.651 79.5302 123.651 76.3623V75.6245C123.839 63.6472 123.933 56.1396 123.933 53.1453C123.933 49.283 123.886 47.2434 123.745 47.0264C123.368 47.0264 121.861 48.2849 119.272 50.8019L115.175 54.7943L115.363 76.3623L115.41 77.7509C115.41 79.7906 115.034 81.3528 114.327 82.4377C113.527 83.1755 112.632 83.5226 111.691 83.5226C110.231 83.5226 109.148 82.8717 108.347 81.5698C107.829 80.7453 107.547 71.2415 107.547 53.0585C107.547 46.983 107.735 43.034 108.065 41.2547C108.489 39.1283 109.43 38.0434 110.984 38H111.926C112.726 38 113.386 38.1736 113.951 38.5208C114.516 38.9113 114.94 39.4321 115.175 40.083C115.41 40.7774 115.505 41.3849 115.505 41.9057C115.505 42.2094 115.457 42.5132 115.41 42.817C115.363 43.1208 115.316 43.4245 115.316 43.6415C115.316 43.8585 115.363 43.9887 115.457 43.9887C115.599 43.9887 116.352 43.3811 117.812 42.2094C120.26 40.0396 122.568 38.9547 124.687 38.9547C126.099 38.9547 127.418 39.3887 128.595 40.3C129.772 41.2113 130.525 42.383 130.855 43.7283C130.902 44.1189 130.996 44.2925 131.137 44.2925C131.373 44.2925 132.315 43.5981 133.963 42.2094C136.035 40.517 137.541 39.4755 138.436 39.0415C139.566 38.5641 140.602 38.3472 141.591 38.3472C143.333 38.3472 144.84 39.0849 146.111 40.5604C147.006 41.5585 147.665 42.7302 148.089 44.0321C148.513 45.334 148.748 46.7226 148.795 48.1981C148.842 49.6736 148.842 50.7585 148.842 51.4962C148.842 53.5792 148.748 56.2264 148.607 59.3943C148.465 63.2132 148.371 66.1208 148.371 68.1604C148.371 70.634 148.56 73.0208 148.983 75.4075C149.078 76.1453 149.172 76.5358 149.313 76.5358C149.878 76.5358 150.867 75.5377 152.28 73.5415C154.022 70.9811 155.952 66.8585 158.071 61.217C158.966 58.7434 159.766 57.2245 160.52 56.6604C161.367 56.0094 162.215 55.7057 163.11 55.7057C163.439 55.7057 163.816 55.7491 164.145 55.8358C165.558 56.2264 166.359 57.1811 166.547 58.6566C166.547 59.6113 166.17 61.1736 165.37 63.3434C164.475 65.817 163.392 68.4208 162.121 71.1547C160.802 73.8887 159.578 76.1019 158.495 77.7076C155.434 81.6566 152.185 83.783 148.654 84Z" fill="#76151B"/>
<path d="M81.2031 83.5312C79.9844 83.5312 78.9531 83.3906 78.0625 83.1094C72.0625 80.9062 68.125 75.8438 66.25 68.0156C65.7812 65.7656 65.5469 62.7656 65.5469 59.0625C65.5469 55.3594 65.7812 52.4062 66.25 50.2969C67.1406 46.5469 68.5938 43.5 70.5625 41.1094C72.5312 38.7656 74.5938 37.5938 76.7031 37.5938C77.125 37.5938 77.6406 37.5 78.25 37.3594C78.8594 37.2188 79.4688 37.0312 79.9844 36.75C81.2031 36.2344 82.4688 36 83.8281 36C85.4688 36 87.2031 36.4219 89.0312 37.2188C92.4531 38.9531 94.9844 41.7188 96.6719 45.4688C98.3594 49.2188 99.2031 52.8281 99.2031 56.2969C99.2031 57.3281 99.1562 58.4062 99.0156 59.5312C98.875 60.6094 98.7812 61.4062 98.7812 61.8281C98.7812 62.0156 98.8281 62.1562 98.9688 62.1562C100.047 62.1562 101.453 61.3594 103.141 59.8125C104.406 58.6406 105.531 57.3281 106.469 55.875C107.547 54.0938 108.578 53.0625 109.562 52.7812C110.078 52.5938 110.5 52.5 110.922 52.5C111.25 52.5 111.672 52.6875 112.188 52.9688C113.547 53.7188 114.203 54.75 114.203 56.1094C114.203 57.2344 112.438 58 111.547 59.5C105.125 65.1719 103.672 66.0781 97.5469 70.5C96.7969 70.6406 96.1094 71.4375 95.6406 72.1406C95.3594 72.5625 94.9844 73.1719 94.5625 73.9688C91.0469 80.3438 86.5938 83.5312 81.2031 83.5312ZM81.2969 75.6094C82.8906 75.6094 84.3906 74.8125 85.7969 73.2656C87.1562 71.7188 87.8594 70.6875 87.8594 70.125C87.8594 69.8906 87.2031 69.4688 85.9375 68.8125C84.625 68.2031 83.2188 67.1719 81.7656 65.7188C78.6719 62.7656 76.4219 59.1562 75.0625 54.8438C74.4531 52.875 74.0312 51.9375 73.7969 51.9375C73.5156 51.9375 73.3281 53.5312 73.1406 56.7188C73.0938 57.6094 73.0469 58.5 73.0469 59.3906C73.0469 65.7188 74.4062 70.3594 77.0312 73.3125C78.4375 74.8125 79.8438 75.6094 81.2969 75.6094ZM90.25 62.1094C91.0938 62.0625 91.4688 60.375 91.4688 57.0938C91.4688 54.6562 91.2812 52.6875 90.8125 51.1406C89.5469 47.2969 87.3906 44.8594 84.3438 43.9688L83.875 43.875C83.3594 43.875 82.8438 44.2031 82.3281 44.7656C81.7188 45.3281 81.3906 45.9375 81.3906 46.5938C81.3906 49.7344 82.0938 52.7344 83.5469 55.5C84.7188 57.75 86.125 59.5312 87.8594 60.8906C88.9375 61.6875 89.7344 62.1094 90.2031 62.1094H90.25Z" fill="#76151B"/>
<path d="M53.625 84.0781C52.8281 84.0781 52.0312 83.9375 51.1875 83.7031C47.9062 82.8125 45.2344 80.5156 43.2656 76.8125C41.2969 73.1094 39.75 67.4844 38.625 60.0312C37.9219 55.1094 37.5469 49.4844 37.5469 43.0625C37.5469 33.8281 38.2031 26.375 39.5625 20.7031C40.4062 17.1875 41.7188 13.6719 43.4062 10.2031C44.9062 7.0625 46.4062 4.90625 47.9062 3.73438C49.4062 2.5625 51.0938 2 52.9688 2L53.8594 2.04688C58.9688 2.28125 61.5469 6.82812 61.5469 15.6875C61.5469 20.375 60.6562 25.4375 58.8281 30.9219C57.5156 34.4375 55.5938 38.5156 53.1094 43.1562C50.4375 48.0312 47.9062 51.9688 45.4688 54.9688L46.4531 60.6875C48.2812 71.2344 50.6719 76.5312 53.6719 76.5312C54.7969 76.5312 56.5781 74.5625 59.1094 70.6719C60.375 68.6562 61.3594 66.875 62.1562 65.2344C62.9062 63.6406 63.6562 61.6719 64.4062 59.3281C65.0625 57.2656 65.5312 55.9062 65.8594 55.2969C66.1875 54.6875 66.6094 54.2656 67.125 53.9375C67.875 53.4219 68.625 53.1875 69.375 53.1875C69.75 53.1875 70.1719 53.2812 70.5469 53.4219C71.6719 53.8438 72.375 54.6875 72.6562 56L72.7031 56.6094C72.5625 58.7188 71.9062 61.25 70.7344 64.25C69.4219 67.6719 67.6875 71.1406 65.5312 74.6562C61.7344 80.9375 57.75 84.0781 53.625 84.0781ZM45.2812 41.75C45.4219 41.75 46.3125 40.1094 47.9062 36.875C51.8906 29.2344 53.9062 22.5312 53.9062 16.7188C53.9062 12.5938 53.7656 10.4375 53.4375 10.2031C53.1562 9.96875 52.9688 9.82812 52.875 9.82812C52.4062 9.82812 51.6094 10.8594 50.5781 12.875C48.0469 17.75 46.4531 23.0938 45.8438 28.9062C45.3281 33.5 45.0938 37.2969 45.0938 40.2969C45.0938 41.2812 45.1406 41.75 45.2812 41.75Z" fill="#76151B"/>
<path d="M3.98438 123.5C3.09375 123.5 2.25 123.219 1.45312 122.609C0.84375 122.188 0.46875 121.766 0.328125 121.344C0.09375 120.969 0 118.906 0 115.156C0 114.078 0.09375 109.531 0.234375 101.562C0.28125 98.4219 0.328125 94.6719 0.421875 90.3594C0.515625 86.0469 0.609375 81.0781 0.703125 75.5L1.21875 50.8438C1.40625 41.9844 1.59375 36.1719 1.78125 33.3594C1.96875 30.5469 2.34375 28.8594 2.8125 28.3906C2.90625 28.2969 3.32812 28.0625 4.07812 27.7812C4.54688 27.5938 5.01562 27.5 5.48438 27.5C6.42188 27.5 7.3125 27.9219 8.15625 28.7188C8.53125 29.0938 8.76562 29.4688 8.90625 29.8906C9.04688 30.3125 9.09375 30.9688 9.09375 31.9531C9.09375 33.5 9.14062 34.2969 9.28125 34.2969C9.375 34.2969 10.2656 33.6406 11.8594 32.375C13.5 31.1094 14.9062 30.2188 16.1719 29.6094C17.6719 28.9062 19.2188 28.5781 20.8125 28.5781C23.1094 28.5781 25.0312 29.5156 26.5781 31.3438C28.125 33.0312 29.0156 34.9062 29.25 37.0156C29.4844 39.125 29.625 40.8594 29.625 42.1719C29.625 44.8438 29.3906 48.0781 28.9219 51.875C28.4062 56.6562 28.125 60.7344 28.125 64.0625C28.125 67.9062 28.4062 69.8281 29.0156 69.8281C29.2031 69.8281 29.9062 69.2188 31.0781 68.0469C33.4688 65.375 36 60.4531 38.6719 53.2344C39.75 50.2344 40.5469 48.4531 40.9688 47.8906C41.25 47.5156 41.5781 47.2344 41.9531 47C42.6562 46.5312 43.3594 46.2969 44.0625 46.2969C44.8594 46.2969 45.6562 46.625 46.4062 47.3281C47.1094 47.8906 47.4375 48.6875 47.4375 49.7188C47.3906 50.7031 47.0156 52.3438 46.2188 54.6406C41.0625 70.0156 35.0625 77.7031 28.2188 77.7031C24.5625 77.7031 22.125 75.2188 20.9531 70.2969C20.7188 68.8906 20.5781 66.3125 20.5781 62.5625C20.625 59.0938 20.9062 55.4375 21.3281 51.5938C21.75 47.9844 21.9844 44.8438 21.9844 42.2188C21.9844 39.5938 21.7969 37.8594 21.375 37.0625C21 36.4531 20.625 36.1719 20.2031 36.1719C19.7812 36.1719 18.6562 36.875 16.8281 38.2344C14.625 39.8281 12 42.0312 9 44.7969C8.01562 93.2188 7.45312 118.25 7.3125 119.891C7.17188 120.969 6.79688 121.812 6.1875 122.375C5.57812 122.984 5.10938 123.312 4.78125 123.359C4.45312 123.453 4.17188 123.5 3.98438 123.5Z" fill="#76151B"/>
<path d="M204.906 43.9062C204.016 43.9062 203.078 43.5312 202.188 42.7812C201.109 41.7031 200.547 40.5781 200.547 39.4531C200.547 38.4219 201.016 37.3906 201.953 36.3125C202.938 35.4219 203.969 35 205.141 35C206.688 35 207.812 35.6562 208.609 37.0156C208.984 37.8594 209.172 38.6562 209.172 39.4062C209.172 40.0625 209.078 40.6719 208.797 41.2344C207.953 43.0156 206.641 43.9062 204.906 43.9062Z" fill="#D93199"/>
</svg>
